# xmcd
#
# Track frame offsets: 
#        150
#        14804
#        25848
#        38770
#        48844
#        62603
#        75561
#        87671
#        99772
#        109737
#        123460
#
# Disc length: 1780 seconds
#
# Revision: 0
# Processed by: cddbd v1.5.2PL0 Copyright (c) Steve Scherf et al.
# Submitted via: ExactAudioCopy v1.3
#
DISCID=8306f20b
DTITLE=Barbara Fairchild - Someone Special
DYEAR=1991
DGENRE=Country
TTITLE0=(When You Close Your Eyes) I'll Make You See
TTITLE1=A Woman's Hand
TTITLE2=Kiss Away
TTITLE3=Fancy Satin Pillows
TTITLE4=A Girl Who'll Always Satisfy Her Man
TTITLE5=Find Out What's Happenin'
TTITLE6=My Love
TTITLE7=You Can't Stop My Heart From Breaking
TTITLE8=Have A Little Faith
TTITLE9=Love Is A Gentle Thing
TTITLE10=Chains Of Love (Around My Neck)
EXTD=
EXTT0=
EXTT1=
EXTT2=
EXTT3=
EXTT4=
EXTT5=
EXTT6=
EXTT7=
EXTT8=
EXTT9=
EXTT10=
PLAYORDER=
